<svg width="20" height="15" viewBox="0 0 20 15" fill="none" xmlns="http://www.w3.org/2000/svg">
    <g clip-path="url(#clip0_334_41)">
        <path d="M0 0H20V15H0V0Z" fill="white"/>
        <path d="M8.5 0H11.5V15H8.5V0Z" fill="#FF0000"/>
        <path d="M0 6H20V9H0V6Z" fill="#FF0000"/>
        <g style="mix-blend-mode:multiply">
            <path fill-rule="evenodd" clip-rule="evenodd" d="M4.5875 11.6594C4.61875 11.1344 4.7125 10.6875 4.7125 10.6875C4.7125 10.6875 4.40625 10.7188 4.25 10.7188C4.09687 10.7188 3.7875 10.6875 3.7875 10.6875C3.7875 10.6875 3.88125 11.1344 3.9125 11.6625C3.38437 11.6313 2.9375 11.5375 2.9375 11.5375C2.9375 11.5375 2.96875 11.7687 2.96875 12C2.96875 12.2313 2.9375 12.4625 2.9375 12.4625C2.9375 12.4625 3.38437 12.3687 3.9125 12.3375C3.88125 12.8656 3.7875 13.3125 3.7875 13.3125C3.7875 13.3125 4.01875 13.2812 4.25 13.2812C4.48125 13.2812 4.7125 13.3125 4.7125 13.3125C4.7125 13.3125 4.61875 12.8656 4.5875 12.3375C5.11563 12.3687 5.5625 12.4625 5.5625 12.4625C5.5625 12.4625 5.53125 12.1562 5.53125 12C5.53125 11.8469 5.5625 11.5375 5.5625 11.5375C5.5625 11.5375 5.11562 11.6313 4.59062 11.6625L4.5875 11.6594ZM16.0875 2.65937C16.1187 2.13437 16.2125 1.6875 16.2125 1.6875C16.2125 1.6875 15.9062 1.71875 15.75 1.71875C15.5969 1.71875 15.2875 1.6875 15.2875 1.6875C15.2875 1.6875 15.3813 2.13437 15.4125 2.65937C14.8844 2.62812 14.4375 2.5375 14.4375 2.5375C14.4375 2.5375 14.4688 2.76875 14.4688 3C14.4688 3.23125 14.4375 3.4625 14.4375 3.4625C14.4375 3.4625 14.8844 3.36875 15.4125 3.3375C15.3813 3.86563 15.2875 4.3125 15.2875 4.3125C15.2875 4.3125 15.5187 4.28125 15.75 4.28125C15.9813 4.28125 16.2125 4.3125 16.2125 4.3125C16.2125 4.3125 16.1187 3.86563 16.0875 3.34063C16.6156 3.37188 17.0625 3.46563 17.0625 3.46563C17.0625 3.46563 17.0312 3.15313 17.0312 3C17.0312 2.84687 17.0625 2.5375 17.0625 2.5375C17.0625 2.5375 16.6156 2.63125 16.0875 2.6625V2.65937ZM4.5875 2.65937C4.61875 2.13437 4.7125 1.6875 4.7125 1.6875C4.7125 1.6875 4.40625 1.71875 4.25 1.71875C4.09687 1.71875 3.7875 1.6875 3.7875 1.6875C3.7875 1.6875 3.88125 2.13437 3.9125 2.6625C3.38437 2.63125 2.9375 2.5375 2.9375 2.5375C2.9375 2.5375 2.96875 2.76875 2.96875 3C2.96875 3.23125 2.9375 3.4625 2.9375 3.4625C2.9375 3.4625 3.38437 3.36875 3.9125 3.3375C3.88125 3.86563 3.7875 4.3125 3.7875 4.3125C3.7875 4.3125 4.01875 4.28125 4.25 4.28125C4.48125 4.28125 4.7125 4.3125 4.7125 4.3125C4.7125 4.3125 4.61875 3.86563 4.5875 3.3375C5.11563 3.36875 5.5625 3.4625 5.5625 3.4625C5.5625 3.4625 5.53125 3.15625 5.53125 3C5.53125 2.84687 5.5625 2.5375 5.5625 2.5375C5.5625 2.5375 5.11562 2.63125 4.59062 2.6625L4.5875 2.65937ZM16.0875 11.6594C16.1187 11.1344 16.2125 10.6875 16.2125 10.6875C16.2125 10.6875 15.9062 10.7188 15.75 10.7188C15.5969 10.7188 15.2875 10.6875 15.2875 10.6875C15.2875 10.6875 15.3813 11.1344 15.4125 11.6625C14.8844 11.6313 14.4375 11.5375 14.4375 11.5375C14.4375 11.5375 14.4688 11.7687 14.4688 12C14.4688 12.2313 14.4375 12.4625 14.4375 12.4625C14.4375 12.4625 14.8844 12.3687 15.4125 12.3375C15.3813 12.8656 15.2875 13.3125 15.2875 13.3125C15.2875 13.3125 15.5187 13.2812 15.75 13.2812C15.9813 13.2812 16.2125 13.3125 16.2125 13.3125C16.2125 13.3125 16.1187 12.8656 16.0875 12.3375C16.6156 12.3687 17.0625 12.4625 17.0625 12.4625C17.0625 12.4625 17.0312 12.1562 17.0312 12C17.0312 11.8469 17.0625 11.5375 17.0625 11.5375C17.0625 11.5375 16.6156 11.6313 16.0875 11.6625V11.6594Z" fill="#FF0000"/>
        </g>
    </g>
    <defs>
        <clipPath id="clip0_334_41">
            <rect width="20" height="15" fill="white"/>
        </clipPath>
    </defs>
</svg>
