<svg width="20" height="15" viewBox="0 0 20 15" fill="none" xmlns="http://www.w3.org/2000/svg">
    <g clip-path="url(#clip0_334_50)">
        <path fill-rule="evenodd" clip-rule="evenodd" d="M0 0H20V15H0V0Z" fill="#00ABC2"/>
        <path fill-rule="evenodd" clip-rule="evenodd" d="M1.88125 14.5938C1.98437 14.6938 1.95 14.8594 2.23437 14.8375C2.66562 14.8375 2.67812 14.575 2.67812 14.3906C2.67812 14.2063 2.03125 13.95 2 13.6781C1.96875 13.4063 2.15 13.3344 2.3 13.3344C2.44687 13.3344 2.55 13.4188 2.55 13.4938C2.55 13.5688 2.48125 13.5938 2.375 13.5938C2.26875 13.5938 2.42187 13.5406 2.33125 13.5C2.24062 13.4594 2.18125 13.5625 2.18125 13.625C2.18125 13.6938 2.40625 13.7125 2.55625 13.6656C2.5875 13.8125 2.6 13.8219 2.39062 14.0719C2.54062 13.975 2.55312 13.9531 2.71875 14.0094C2.55312 13.8656 2.67812 13.5781 2.68125 13.5063C2.68437 13.4344 2.65 13.3469 2.5875 13.3031C2.46562 13.1938 2.20625 13.1875 2.05 13.2594C1.82187 13.3594 1.80937 13.6594 1.86875 13.7594L2.5 14.3969C2.54375 14.4719 2.5625 14.6844 2.29375 14.6938C2.0125 14.7156 1.9125 14.3313 1.8625 14.2031C1.79687 14.3438 1.72187 14.7281 1.4375 14.7063C1.16875 14.6969 1.11875 14.4875 1.1625 14.4094L1.80937 13.7531C1.87187 13.6531 1.85937 13.3531 1.63125 13.2531C1.475 13.1813 1.21562 13.1906 1.09687 13.2969C1.02812 13.3406 0.990623 13.425 0.996873 13.5C1.00312 13.575 1.125 13.8594 0.962498 14C1.125 13.9469 1.14062 13.9688 1.29062 14.0625C1.08125 13.8156 1.09687 13.8063 1.125 13.6563C1.275 13.7063 1.5 13.6875 1.5 13.6219C1.5 13.5563 1.4375 13.4469 1.34687 13.4906C1.25937 13.5344 1.40937 13.5875 1.30312 13.5875C1.2 13.5875 1.125 13.5656 1.125 13.4938C1.125 13.4219 1.22812 13.3281 1.37812 13.3281C1.52812 13.3281 1.70625 13.4031 1.675 13.675C1.64375 13.9469 0.987498 14.2406 0.987498 14.425C0.987498 14.6125 1.03125 14.8344 1.4625 14.8344C1.74375 14.8563 1.77812 14.6906 1.88125 14.5906V14.5938Z" fill="#FFEC2D"/>
        <path fill-rule="evenodd" clip-rule="evenodd" d="M1.84687 10.7281C1.95 10.6281 2.03437 10.3343 2.31562 10.3531C2.74687 10.3531 2.90937 10.5937 2.90937 10.7781C2.90937 10.9625 2.03437 12.4656 2.00312 12.7375C1.97187 13.0093 2.15312 13.0843 2.3 13.0843C2.45 13.0843 2.55312 13 2.55312 12.9218C2.55312 12.8437 2.47812 12.8281 2.375 12.8281C2.27187 12.8281 2.41875 12.8812 2.33125 12.9218C2.24375 12.9625 2.18125 12.8593 2.18125 12.7937C2.18125 12.7281 2.40625 12.7062 2.55625 12.7562C2.58437 12.6093 2.59687 12.6 2.39062 12.35C2.54062 12.4437 2.55312 12.4687 2.71875 12.4125C2.55312 12.5562 2.675 12.8406 2.68125 12.9125C2.6875 12.9843 2.65 13.075 2.58437 13.1187C2.46562 13.2281 2.20312 13.2312 2.04687 13.1625C1.82187 13.0593 1.80937 12.7625 1.86875 12.6625L2.71875 10.8312C2.76562 10.7562 2.64687 10.5062 2.37812 10.4968C2.09687 10.475 2 10.7718 1.95 10.9L2.33437 10.8687C2.33437 10.8687 2.35 10.9312 2.33437 10.9687C2.20541 10.9781 2.07708 10.9948 1.95 11.0187L1.93437 11.2125H2.12187L2.10937 11.3C2.10937 11.3 1.95 11.2875 1.93437 11.3C1.91875 11.3093 1.90312 11.4937 1.90312 11.4937C1.90312 11.4937 1.87187 11.5062 1.84062 11.5062C1.80937 11.5062 1.77812 11.4937 1.77812 11.4937C1.77812 11.4937 1.76562 11.3093 1.75 11.3C1.73437 11.2875 1.575 11.3 1.575 11.3L1.55937 11.2125H1.75L1.73437 11.0187C1.73437 11.0187 1.54687 10.9812 1.35 10.9687C1.3375 10.9312 1.35 10.8718 1.35 10.8718L1.73437 10.9C1.68437 10.7718 1.5875 10.475 1.30625 10.4937C1.0375 10.5062 0.918748 10.7562 0.962498 10.8312L1.8125 12.6625C1.87187 12.7593 1.85937 13.0593 1.63437 13.1625C1.47812 13.2312 1.21562 13.225 1.09687 13.1187C1.03125 13.075 0.993748 12.9875 0.999998 12.9156C1.00625 12.8437 1.125 12.5531 0.962498 12.4156C1.12812 12.4687 1.14375 12.4468 1.29062 12.35C1.08437 12.6 1.09687 12.6093 1.12812 12.7562C1.275 12.7062 1.5 12.725 1.5 12.7937C1.5 12.8562 1.4375 12.9656 1.35 12.9218C1.2625 12.8781 1.4125 12.8281 1.30625 12.8281C1.20312 12.8281 1.12812 12.8468 1.12812 12.9218C1.12812 12.9968 1.23125 13.0843 1.37812 13.0843C1.525 13.0843 1.70625 13.0093 1.67812 12.7406C1.64687 12.4687 0.771873 10.9593 0.771873 10.7781C0.771873 10.5906 0.934373 10.3562 1.36562 10.3562C1.64687 10.3343 1.75 10.6281 1.85 10.7281H1.84687Z" fill="#FFEC2D"/>
        <path fill-rule="evenodd" clip-rule="evenodd" d="M1.84687 9.98124C1.95 10.0812 2.03437 10.375 2.31562 10.3562C2.74687 10.3562 2.90937 10.1156 2.90937 9.93124C2.90937 9.74687 2.03437 8.24374 2.00312 7.97187C1.97187 7.69999 2.15312 7.62499 2.3 7.62499C2.45 7.62499 2.55312 7.70937 2.55312 7.78749C2.55312 7.86562 2.47812 7.88124 2.375 7.88124C2.27187 7.88124 2.41875 7.83124 2.33125 7.78749C2.24375 7.74374 2.18125 7.84999 2.18125 7.91562C2.18125 7.98124 2.40625 8.00312 2.55625 7.95312C2.58437 8.09999 2.59687 8.10937 2.39062 8.35937C2.54062 8.26562 2.55312 8.24062 2.71875 8.29687C2.55312 8.15312 2.675 7.86874 2.68125 7.79687C2.6875 7.72499 2.65 7.63437 2.58437 7.59062C2.46562 7.48437 2.20312 7.47812 2.04687 7.54687C1.82187 7.64999 1.80937 7.94687 1.86875 8.04687L2.71875 9.87499C2.76562 9.94999 2.64687 10.2 2.37812 10.2094C2.09687 10.2312 2 9.93437 1.95 9.80624L2.33437 9.83749C2.33437 9.83749 2.35 9.77499 2.33437 9.73749C2.20541 9.72807 2.07708 9.71138 1.95 9.68749L1.93437 9.49374H2.12187L2.10937 9.40624C2.10937 9.40624 1.95 9.41874 1.93437 9.40624C1.91875 9.39687 1.90312 9.21249 1.90312 9.21249C1.90312 9.21249 1.87187 9.19999 1.84062 9.19999C1.80937 9.19999 1.77812 9.21249 1.77812 9.21249C1.77812 9.21249 1.76562 9.39687 1.75 9.40624C1.73437 9.41874 1.575 9.40624 1.575 9.40624L1.55937 9.49374H1.75L1.73437 9.68749C1.73437 9.68749 1.54687 9.72499 1.35 9.73749C1.3375 9.77499 1.35 9.83437 1.35 9.83437L1.73437 9.80624C1.68437 9.93437 1.5875 10.2312 1.30625 10.2125C1.0375 10.2 0.918748 9.94999 0.962498 9.87499L1.8125 8.04687C1.87187 7.94687 1.85937 7.64999 1.63437 7.54687C1.47812 7.47812 1.21562 7.48437 1.09687 7.59062C1.03125 7.63437 0.993748 7.72187 0.999998 7.79374C1.00625 7.86562 1.125 8.15312 0.962498 8.29374C1.12812 8.24062 1.14375 8.26249 1.29062 8.35937C1.08437 8.10937 1.09687 8.09999 1.12812 7.95312C1.275 8.00312 1.5 7.98437 1.5 7.91562C1.5 7.85312 1.4375 7.74374 1.35 7.78749C1.2625 7.83124 1.4125 7.88124 1.30625 7.88124C1.20312 7.88124 1.12812 7.86249 1.12812 7.78749C1.12812 7.71249 1.23125 7.62499 1.37812 7.62499C1.525 7.62499 1.70625 7.69999 1.67812 7.96874C1.64687 8.24062 0.771873 9.74999 0.771873 9.93124C0.771873 10.1187 0.934373 10.3531 1.36562 10.3531C1.64687 10.375 1.75 10.0812 1.85 9.98124H1.84687Z" fill="#FFEC2D"/>
        <path fill-rule="evenodd" clip-rule="evenodd" d="M1.84687 5.01874C1.95 4.91874 2.03437 4.62499 2.31562 4.64374C2.74687 4.64374 2.90937 4.88437 2.90937 5.06874C2.90937 5.25312 2.03437 6.75624 2.00312 7.03124C1.97187 7.29999 2.15312 7.37499 2.3 7.37499C2.45 7.37499 2.55312 7.29062 2.55312 7.21562C2.55312 7.14062 2.47812 7.11562 2.375 7.11562C2.27187 7.11562 2.41875 7.17187 2.33125 7.21562C2.24375 7.25937 2.18125 7.14999 2.18125 7.08437C2.18125 7.02187 2.40625 6.99687 2.55625 7.04687C2.58437 6.89999 2.59687 6.89062 2.39062 6.64062C2.54062 6.73749 2.55312 6.75937 2.71875 6.70312C2.55312 6.84687 2.675 7.13437 2.68125 7.20312C2.6875 7.27187 2.65 7.36562 2.58437 7.40937C2.46562 7.51874 2.20312 7.52187 2.04687 7.45312C1.82187 7.34999 1.80937 7.05312 1.86875 6.95312L2.71875 5.12499C2.76562 5.04999 2.64687 4.79999 2.37812 4.79062C2.09687 4.76874 2 5.06562 1.95 5.19374L2.33437 5.16249C2.33437 5.16249 2.35 5.22499 2.33437 5.26249C2.13437 5.27499 1.95 5.31249 1.95 5.31249L1.93437 5.50624H2.12187L2.10937 5.59374C2.10937 5.59374 1.95 5.58437 1.93437 5.59374C1.91875 5.60312 1.90312 5.79062 1.90312 5.79062C1.90312 5.79062 1.87187 5.79999 1.84062 5.79999C1.80937 5.79999 1.77812 5.79062 1.77812 5.79062C1.77812 5.79062 1.76562 5.60312 1.75 5.59374C1.73437 5.58437 1.575 5.59374 1.575 5.59374L1.55937 5.50624H1.75L1.73437 5.31249C1.73437 5.31249 1.54687 5.27499 1.35 5.26249C1.3375 5.22499 1.35 5.16562 1.35 5.16562L1.73437 5.19374C1.68437 5.06562 1.5875 4.76874 1.30625 4.78749C1.0375 4.79999 0.918748 5.04999 0.962498 5.12499L1.8125 6.95312C1.87187 7.05312 1.85937 7.34999 1.63437 7.45312C1.47812 7.52187 1.21562 7.51562 1.09687 7.40937C1.03125 7.36562 0.993748 7.27812 0.999998 7.20624C1.00625 7.13437 1.125 6.84687 0.962498 6.70624C1.12812 6.75937 1.14375 6.73749 1.29062 6.64062C1.08437 6.89062 1.09687 6.89999 1.12812 7.04687C1.275 6.99687 1.5 7.01874 1.5 7.08437C1.5 7.14687 1.4375 7.25624 1.35 7.21249C1.2625 7.17187 1.4125 7.11874 1.30625 7.11874C1.20312 7.11874 1.12812 7.13749 1.12812 7.21249C1.12812 7.28749 1.23125 7.37499 1.37812 7.37499C1.525 7.37499 1.70625 7.29999 1.67812 7.03124C1.64687 6.75937 0.771873 5.25312 0.771873 5.06874C0.771873 4.88437 0.934373 4.64687 1.36562 4.64687C1.64687 4.62499 1.75 4.91874 1.85 5.02187L1.84687 5.01874Z" fill="#FFEC2D"/>
        <path fill-rule="evenodd" clip-rule="evenodd" d="M1.84687 4.27189C1.95 4.37189 2.03437 4.66877 2.31562 4.64689C2.74687 4.64689 2.90937 4.40627 2.90937 4.22189C2.90937 4.03752 2.03437 2.53439 2.00312 2.26252C1.97187 1.99064 2.15312 1.91564 2.3 1.91564C2.45 1.91564 2.55312 2.00314 2.55312 2.07814C2.55312 2.15314 2.47812 2.17502 2.375 2.17502C2.27187 2.17502 2.41875 2.12189 2.33125 2.07814C2.24375 2.03439 2.18125 2.14064 2.18125 2.20627C2.18125 2.27189 2.40625 2.29377 2.55625 2.24377C2.58437 2.39064 2.59687 2.40002 2.39062 2.65002C2.54062 2.55627 2.55312 2.53127 2.71875 2.58752C2.55312 2.44689 2.675 2.15939 2.68125 2.08752C2.6875 2.01564 2.65 1.92502 2.58437 1.88127C2.46562 1.77502 2.20312 1.76877 2.04687 1.84064C1.82187 1.94064 1.80937 2.24064 1.86875 2.33752L2.71875 4.16877C2.76562 4.24377 2.64687 4.49377 2.37812 4.50627C2.09687 4.52502 2 4.23127 1.95 4.10002L2.33437 4.13127C2.33437 4.13127 2.35 4.06877 2.33437 4.03127C2.20548 4.02278 2.07716 4.00713 1.95 3.98439L1.93437 3.78752H2.12187L2.10937 3.70002C2.10937 3.70002 1.95 3.71252 1.93437 3.70002C1.91875 3.69064 1.90312 3.50627 1.90312 3.50627C1.90312 3.50627 1.87187 3.49377 1.84062 3.49377C1.80937 3.49377 1.77812 3.50627 1.77812 3.50627C1.77812 3.50627 1.76562 3.69064 1.75 3.70002C1.73437 3.71252 1.575 3.70002 1.575 3.70002L1.55937 3.78752H1.75L1.73437 3.98439C1.73437 3.98439 1.54687 4.01877 1.35 4.03127C1.3375 4.07189 1.35 4.13127 1.35 4.13127L1.73437 4.10002C1.68437 4.23127 1.5875 4.52502 1.30625 4.50627C1.0375 4.49377 0.918748 4.24377 0.962498 4.16877L1.8125 2.33752C1.87187 2.24064 1.85937 1.94064 1.63437 1.83752C1.47812 1.76877 1.21562 1.77502 1.09687 1.88127C1.03125 1.92502 0.993748 2.01252 0.999998 2.08439C1.00625 2.15627 1.125 2.44689 0.962498 2.58439C1.12812 2.53127 1.14375 2.55314 1.29062 2.65002C1.08437 2.40002 1.09687 2.39064 1.12812 2.24377C1.27812 2.29377 1.5 2.27502 1.5 2.20627C1.5 2.14377 1.4375 2.03439 1.35 2.07814C1.2625 2.12189 1.4125 2.17502 1.30625 2.17502C1.20312 2.17502 1.12812 2.15314 1.12812 2.07814C1.12812 2.00314 1.23125 1.91564 1.37812 1.91564C1.525 1.91564 1.70937 1.99064 1.67812 2.25939C1.64687 2.53127 0.771873 4.04064 0.771873 4.22189C0.771873 4.40939 0.934373 4.64689 1.36562 4.64689C1.64687 4.66877 1.75 4.37189 1.85 4.27189H1.84687Z" fill="#FFEC2D"/>
        <path fill-rule="evenodd" clip-rule="evenodd" d="M1.88125 0.40624C1.98437 0.30624 1.95 0.140615 2.23437 0.16249C2.66562 0.16249 2.67812 0.42499 2.67812 0.609365C2.67812 0.79374 2.03125 1.04999 2 1.32186C1.96875 1.59374 2.15 1.66561 2.3 1.66561C2.44687 1.66561 2.55 1.58124 2.55 1.50624C2.55 1.43124 2.48125 1.40624 2.375 1.40624C2.26875 1.40624 2.42187 1.45936 2.33125 1.49999C2.24062 1.54061 2.18125 1.43749 2.18125 1.37499C2.18125 1.30624 2.40625 1.28437 2.55625 1.33437C2.5875 1.18749 2.6 1.17812 2.39062 0.928115C2.54062 1.02499 2.55312 1.04687 2.71875 0.990615C2.55312 1.13437 2.67812 1.42186 2.68125 1.49374C2.68437 1.56561 2.65 1.65311 2.5875 1.69686C2.4625 1.81249 2.20312 1.81249 2.04687 1.74374C1.81875 1.64374 1.80625 1.34374 1.86562 1.24374L2.5 0.603115C2.54375 0.528115 2.5625 0.315615 2.29375 0.30624C2.0125 0.284365 1.9125 0.66874 1.8625 0.796865C1.79687 0.65624 1.72187 0.26874 1.4375 0.290615C1.16875 0.29999 1.11875 0.509365 1.1625 0.58749L1.80937 1.24374C1.87187 1.34374 1.85937 1.64374 1.63125 1.74374C1.475 1.81561 1.21562 1.80937 1.09687 1.69999C1.02812 1.65624 0.990623 1.57187 0.996873 1.49687C1.00312 1.42187 1.125 1.13749 0.962498 0.996865C1.125 1.04999 1.14062 1.02811 1.2875 0.934365C1.08125 1.18124 1.09687 1.19062 1.125 1.34062C1.275 1.29062 1.5 1.30936 1.5 1.37499C1.5 1.44061 1.4375 1.54999 1.34687 1.50624C1.25937 1.46249 1.40937 1.40936 1.30312 1.40936C1.2 1.40936 1.125 1.43124 1.125 1.50311C1.125 1.57499 1.22812 1.66874 1.37812 1.66874C1.52812 1.66874 1.70625 1.59374 1.675 1.32186C1.64375 1.04999 0.987498 0.75624 0.987498 0.571865C0.987498 0.384365 1.03125 0.16249 1.4625 0.16249C1.74375 0.140615 1.77812 0.30624 1.88125 0.40624Z" fill="#FFEC2D"/>
        <path d="M13.7974 6.43468C13.7974 4.94907 12.5266 3.74475 10.9591 3.74475C9.39149 3.74475 8.12072 4.94907 8.12072 6.43468C8.12072 7.92029 9.39149 9.12461 10.9591 9.12461C12.5266 9.12461 13.7974 7.92029 13.7974 6.43468Z" fill="#FFEC2D"/>
        <path fill-rule="evenodd" clip-rule="evenodd" d="M10.8257 2.14048C10.799 2.14048 10.6722 3.03434 10.6255 3.23446C10.5788 3.68473 11.2259 3.66805 11.1192 3.21779L10.8257 2.13715V2.14048ZM11.0525 10.8056C11.0758 10.8056 11.2693 9.92176 11.3326 9.72498C11.4093 9.28138 10.7623 9.25804 10.8323 9.71164L11.0525 10.8056ZM6.52978 6.41635C6.52978 6.4397 7.46033 6.62648 7.66712 6.68651C8.13406 6.76322 8.16742 6.15286 7.68713 6.21957L6.52978 6.41969V6.41635ZM15.5918 6.52308C15.5918 6.49973 14.6513 6.34631 14.4411 6.29294C13.9709 6.23624 13.9675 6.84661 14.4411 6.76322L15.5918 6.52308ZM7.48368 3.58134C7.467 3.59801 8.0807 4.29176 8.2041 4.46186C8.52429 4.79539 8.94788 4.32845 8.52429 4.10164L7.48368 3.58467V3.58134ZM14.5245 9.28472C14.5412 9.26804 13.8675 8.62766 13.7274 8.4709C13.3772 8.16406 13.0003 8.66102 13.4405 8.85447L14.5245 9.28806V9.28472ZM8.88784 2.6141C8.86783 2.6241 9.15467 3.48461 9.20136 3.68807C9.36146 4.11165 9.9418 3.83482 9.64162 3.47127L8.89118 2.6141H8.88784ZM12.9936 10.3654C13.017 10.3554 12.7935 9.47817 12.7635 9.27471C12.6334 8.84112 12.0364 9.0746 12.3065 9.46149L12.9969 10.362L12.9936 10.3654ZM14.0042 3.21445C13.9842 3.19778 13.2438 3.76811 13.0637 3.88151C12.7068 4.18169 13.1904 4.5886 13.4372 4.1917L14.0042 3.21445ZM7.90059 9.67495C7.91727 9.69163 8.70107 9.17466 8.88784 9.07126C9.26473 8.79777 8.81447 8.3575 8.53763 8.73773L7.90393 9.67495H7.90059ZM6.73323 4.86877C6.72322 4.88878 7.53371 5.35906 7.71048 5.48246C8.12739 5.69926 8.37087 5.13226 7.89392 5.0422L6.73323 4.86877ZM15.1949 8.15071C15.2049 8.1307 14.4278 7.60706 14.261 7.47365C13.8608 7.22683 13.5773 7.77716 14.0476 7.89723L15.1949 8.15071ZM12.5067 2.38396C12.4833 2.37729 12.0197 3.16442 11.8963 3.33452C11.8965 3.38884 11.9137 3.44173 11.9456 3.48576C11.9774 3.5298 12.0222 3.56277 12.0737 3.58006C12.1251 3.59735 12.1808 3.59808 12.2327 3.58216C12.2846 3.56624 12.3303 3.53446 12.3632 3.49128L12.5067 2.38396ZM9.3748 10.5321C9.39815 10.5421 9.91845 9.78502 10.0519 9.62159C10.2953 9.23469 9.70499 8.98788 9.59493 9.43481L9.3748 10.5321ZM6.78993 8.22076C6.79994 8.24077 7.72382 8.02064 7.94061 7.98728C8.39422 7.86054 8.14073 7.30021 7.7405 7.56036L6.78993 8.22076ZM15.1983 4.79539C15.1916 4.77538 14.2544 4.93214 14.0376 4.95215C13.5706 5.04887 13.7874 5.62588 14.2043 5.39241L15.1983 4.79539Z" fill="#FFEC2D"/>
        <path fill-rule="evenodd" clip-rule="evenodd" d="M11.7462 2.19718C11.7229 2.19385 11.4093 3.04435 11.316 3.23113C11.1792 3.66472 11.8162 3.77145 11.8062 3.31118L11.7495 2.19385L11.7462 2.19718ZM10.1286 10.7322C10.1519 10.7389 10.5288 9.90842 10.6355 9.72498C10.8023 9.30473 10.1753 9.15798 10.1519 9.61492L10.1252 10.7322H10.1286ZM9.80505 2.28057C9.78171 2.28724 9.86842 3.18777 9.86842 3.39456C9.9318 3.83816 10.5555 3.68473 10.3487 3.27115L9.80505 2.28057ZM12.0731 10.6822C12.0964 10.6789 12.0731 9.77501 12.0897 9.56822C12.0597 9.11796 11.4227 9.23136 11.6028 9.65828L12.0697 10.6822H12.0731ZM8.19743 3.02768C8.17742 3.04102 8.62102 3.83816 8.7044 4.02827C8.94454 4.4185 9.46152 4.05162 9.09797 3.74143L8.19743 3.02768ZM13.694 9.96179C13.714 9.94845 13.3271 9.12129 13.2604 8.92784C13.0503 8.52427 12.51 8.8578 12.8469 9.188L13.694 9.96179ZM7.0234 4.14834C7.01006 4.16835 7.72715 4.76204 7.87724 4.91546C8.24746 5.19563 8.591 4.67532 8.1374 4.51189L7.0234 4.14834ZM14.8347 8.80777C14.848 8.78776 14.1776 8.14738 14.0376 7.98729C13.6907 7.68377 13.3105 8.18073 13.7507 8.37418L14.8347 8.80777ZM6.50977 5.54584C6.50309 5.56918 7.38695 5.90605 7.5804 6.00277C8.02733 6.15286 8.17075 5.55584 7.68379 5.5425L6.50977 5.54584ZM15.4284 7.47365C15.4384 7.45364 14.5812 7.06007 14.3944 6.95C13.9609 6.7699 13.7707 7.35691 14.2544 7.40361L15.4284 7.47365ZM6.47975 7.26352C6.48308 7.28353 7.43698 7.27019 7.65378 7.28687C8.12739 7.26352 8.01399 6.65983 7.56039 6.82326L6.47975 7.26352ZM15.4918 5.76263C15.4918 5.73928 14.5379 5.68925 14.3244 5.65924C13.8475 5.65257 13.9175 6.26293 14.3811 6.12618L15.4918 5.7593V5.76263ZM7.2969 9.04458C7.31024 9.06459 8.16408 8.65768 8.3642 8.58097C8.77778 8.36418 8.39755 7.86721 8.06736 8.20408L7.2969 9.04458ZM14.7113 3.9649C14.698 3.94489 13.8208 4.29509 13.6106 4.35847C13.1804 4.54858 13.5239 5.06889 13.8775 4.75537L14.7113 3.9649ZM8.68439 10.2253C8.7044 10.2353 9.31476 9.54154 9.46819 9.39479C9.75836 9.03791 9.20136 8.72772 9.03793 9.16132L8.68439 10.2253ZM13.3438 2.76085C13.3271 2.74751 12.6668 3.3979 12.5033 3.53464C12.1898 3.87151 12.7235 4.21838 12.9169 3.79813L13.3405 2.76085H13.3438Z" fill="#FFEC2D"/>
        <path fill-rule="evenodd" clip-rule="evenodd" d="M6.61924 8.22383C6.67019 8.39584 6.67747 9.35909 7.70381 10.288C8.72287 11.2099 10.4698 11.4163 10.4698 11.4163C10.4698 11.4163 10.4771 11.5471 10.3534 11.5539C10.2296 11.5677 9.63274 11.4507 9.3343 11.3613C9.04314 11.2787 8.7811 11.1274 8.75198 11.1342C8.71559 11.148 8.65735 11.2443 8.57001 11.2306C8.48266 11.2168 8.06048 10.804 7.87122 10.6939C7.49269 10.3846 7.15756 10.0309 6.874 9.64119C6.67019 9.33157 6.61924 9.12516 6.55373 9.12516C6.48822 9.12516 6.24801 9.27653 6.24801 9.27653C6.24801 9.27653 6.02964 8.96691 5.84039 8.47152C5.64385 7.97613 5.66569 7.68715 5.70937 7.66651C5.76032 7.64587 5.76032 8.03117 5.9059 8.38208C6.05148 8.73986 6.25529 8.84994 6.25529 8.84994C6.25529 8.84994 6.12427 8.66417 6.02236 8.20319C5.92046 7.7422 5.87678 7.29497 5.94957 7.15736C6.02236 7.01975 6.08787 6.97847 6.09515 6.98535C6.10971 6.99911 5.97141 7.19864 6.06604 7.72844C6.16066 8.25823 6.41543 8.70546 6.47366 8.68481C6.53189 8.66417 6.43726 8.55409 6.40087 8.24447C6.36447 7.93485 6.43726 7.7422 6.51733 7.71468C6.55373 7.68715 6.61196 8.0587 6.61924 8.22383ZM5.9059 9.10452C5.70936 8.93251 5.40365 8.33391 5.33814 8.36143C5.26535 8.39584 5.83311 9.25589 5.84767 9.32469C5.86222 9.40726 5.98597 9.64119 5.89134 9.60679C5.79671 9.57239 5.11977 8.89811 5.19984 9.02884C5.27991 9.15956 5.78943 9.75128 5.76032 9.78568C5.7312 9.82008 5.33814 9.45542 5.32358 9.50358C5.3163 9.54487 5.70937 9.90265 5.70209 9.94393C5.69481 9.98521 5.44732 9.71688 5.44732 9.77192C5.44732 9.82696 5.70209 10.0953 5.70209 10.1366C5.70209 10.1779 5.48372 9.94393 5.55651 10.0678C5.62202 10.2054 5.81127 10.3224 5.80399 10.3636C5.79671 10.4049 5.64386 10.3086 5.64386 10.3292C5.64386 10.3499 5.92773 10.4462 5.99325 10.5219C6.06604 10.5976 6.53189 11.1067 6.88128 11.3613C7.23067 11.6159 8.23517 12.0631 8.30796 12.0631C8.37347 12.0631 8.47538 11.9255 8.45354 11.8704C8.4317 11.8154 7.44904 11.4989 7.17972 11.265C6.90312 11.031 6.23345 10.4668 6.17522 10.4393C6.12427 10.4049 5.97141 10.4187 5.97141 10.3843C5.97141 10.3499 6.16794 10.4049 6.15338 10.3843C6.14611 10.3636 5.88406 10.2535 5.89134 10.2329C5.9059 10.2123 6.07331 10.2742 6.07331 10.2535C6.07331 10.2329 5.7676 10.0747 5.78216 10.0403C5.78943 10.0059 6.0078 10.1366 6.0078 10.1091C6.0078 10.0953 5.71664 9.90265 5.72392 9.86824C5.7312 9.83384 5.94957 10.0196 5.94229 9.97833C5.93501 9.93705 5.7676 9.70312 5.7676 9.67559C5.7676 9.64119 6.02964 9.90953 6.05876 9.85449C6.07331 9.80632 5.96413 9.35909 5.97141 9.35221C5.97869 9.34533 6.16794 9.44854 6.19706 9.38662C6.23345 9.31781 6.06603 9.22837 5.9059 9.10452ZM9.26151 12.4897C9.12321 12.5103 9.0577 12.4622 9.13777 12.3521C9.24695 12.3521 9.53811 12.2626 9.64002 12.2213C9.74192 12.1801 9.85111 12.125 9.93846 12.0493C10.0258 11.9599 10.084 12.0975 10.0331 12.1732C9.99669 12.2213 9.82927 12.3108 9.70553 12.359C9.52355 12.414 9.36342 12.4966 9.26151 12.4897ZM10.1714 12.1388C10.0768 12.0425 10.1568 11.9737 10.2951 11.898C10.4989 11.7948 10.4407 11.6503 10.7028 11.5333C10.8192 11.4645 12.4497 10.8453 12.9811 10.515C13.5124 10.1847 15.0046 9.11828 15.405 8.38208C15.798 7.65275 15.6088 7.59771 15.667 7.57019C15.718 7.53578 15.7762 7.67339 15.7689 7.83852C15.7544 7.99677 15.6233 8.4784 15.667 8.52656C15.7107 8.57473 16.2639 8.14814 16.4968 7.63211C16.7297 7.11608 16.9044 6.57941 17.0136 6.57941C17.1301 6.57941 16.8244 7.4601 16.6278 7.80412C16.4386 8.14814 16.2129 8.32015 16.2639 8.39584C16.3221 8.46464 16.8899 8.01741 17.0864 7.68715C17.2757 7.35001 17.4576 7.05416 17.494 7.11608C17.4361 7.51913 17.268 7.90093 17.0064 8.22383C16.7006 8.55409 16.3367 8.7949 16.3949 8.84306C16.4459 8.89811 16.8608 8.95315 17.2902 8.67793C17.727 8.39584 17.7706 7.98989 17.8216 8.01053C17.8798 8.03117 17.7706 8.58849 17.3557 8.93251C16.9408 9.27653 16.3949 9.31093 16.4095 9.38662C16.4386 9.45542 17.5959 9.07012 17.5741 9.15956C17.5523 9.24213 16.0746 9.79256 16.0601 9.8476C16.0601 9.88889 16.3148 9.90265 16.7152 9.8132C17.1083 9.73064 17.4868 9.43478 17.5377 9.50358C17.5523 9.59991 17.2538 9.83384 16.8025 9.94393C16.344 10.054 16.1183 10.1985 16.1038 10.2329C16.0965 10.2673 16.919 10.1366 16.919 10.1779C16.919 10.2191 15.8417 10.4187 15.8344 10.4737C15.8199 10.5219 16.8535 10.2742 16.8389 10.3361C16.8098 10.3843 15.4341 10.7696 15.4486 10.7902C15.4559 10.8177 16.5987 10.5563 16.5769 10.5976C16.5478 10.6457 14.6552 11.148 14.6407 11.1824C14.6261 11.2099 16.3148 10.8246 16.3003 10.859C16.2857 10.8934 15.4268 11.093 15.4268 11.1136C15.4268 11.1342 16.1183 11.0104 16.1038 11.0448C16.0965 11.0723 14.3568 11.492 14.3204 11.5539C14.284 11.6228 15.223 11.3819 15.2084 11.5058C15.1939 11.6296 13.1922 12.2626 13.1849 12.1457C13.1703 12.0287 14.4005 11.7328 14.3932 11.6984C14.3786 11.664 13.6871 11.7672 13.6726 11.7053C13.6653 11.6365 14.1312 11.4989 14.0948 11.4714C14.0584 11.437 13.709 11.5677 13.7381 11.492C13.7745 11.4163 14.4369 11.1274 14.4223 11.1067C14.415 11.0861 14.1821 11.1755 14.2039 11.1067C14.2331 11.031 15.6379 10.6457 15.6161 10.5976C15.5942 10.5563 14.9682 10.6939 14.91 10.7077C14.8882 10.6664 15.7835 10.3499 15.7689 10.2948C15.7398 10.2467 15.2885 10.4806 15.2594 10.4187C15.2448 10.3499 16.0528 10.054 16.0019 10.0059C15.9509 9.95769 15.5869 10.1297 15.536 10.0815C15.485 10.0334 16.3003 9.50358 16.1765 9.48982C16.0528 9.48294 15.8999 9.65495 15.8854 9.54487C15.8999 9.40726 16.5187 9.1802 16.3804 9.07012C16.162 9.00819 15.4268 9.11828 15.1211 9.29029C14.8154 9.4623 13.7963 10.4187 13.5488 10.57C13.3013 10.7145 12.457 11.0517 12.2968 11.1205C12.0494 11.203 12.0057 11.3269 11.7509 11.4507C11.2923 11.5677 11.2996 11.6984 11.0813 11.7741C11.0012 11.7948 10.1787 12.1663 10.1714 12.1388ZM9.0213 12.6204C8.883 12.6892 8.75926 12.8543 8.83933 12.9232C8.883 13.0057 9.0213 12.7374 9.13049 12.7511L9.71281 12.7787C10.0258 12.7993 10.1787 12.7167 10.3534 12.7305C10.5281 12.7443 10.9138 12.6411 11.0958 12.6411C11.2778 12.6411 11.3142 12.6617 11.3287 12.586C11.3506 12.5172 10.761 12.5654 10.4989 12.5585C10.2369 12.5447 9.90934 12.6067 9.71281 12.6067C9.53083 12.5998 9.21784 12.5447 9.0213 12.6204Z" fill="#FFEC2D"/>
        <path d="M9.89478 12.5378C9.89478 12.4808 9.83938 12.4346 9.77104 12.4346C9.7027 12.4346 9.6473 12.4808 9.6473 12.5378C9.6473 12.5948 9.7027 12.641 9.77104 12.641C9.83938 12.641 9.89478 12.5948 9.89478 12.5378Z" fill="#FFEC2D"/>
        <path fill-rule="evenodd" clip-rule="evenodd" d="M12.7991 12.3383C12.9228 12.3177 13.2577 12.4277 13.4906 12.4759C13.9128 12.6342 14.6989 12.5585 14.6989 12.6342C14.6989 12.7098 14.648 12.7993 14.466 12.8131C14.284 12.8268 13.8254 12.7442 13.84 12.7442C13.8545 12.7442 14.2039 12.9025 14.102 12.9438C14.0001 12.9851 13.7017 12.8543 13.6507 12.8887C13.5998 12.9231 13.9273 12.9851 13.8691 13.0057C13.8254 13.0263 13.5998 12.9782 13.527 12.9851C13.4542 12.9988 13.5852 13.0745 13.4979 13.102C13.4105 13.1364 13.265 13.0607 13.2067 13.0814C13.1412 13.102 13.3377 13.219 13.2504 13.2328C13.163 13.2465 12.9592 13.1777 12.8428 13.164C12.7263 13.164 12.952 13.274 12.8792 13.2878C12.8064 13.2947 12.6026 13.1984 12.5516 13.1984C12.5007 13.1984 12.5516 13.336 12.4788 13.336C12.406 13.336 12.3187 13.219 12.275 13.219C12.2313 13.219 12.275 13.3566 12.2022 13.3566C12.1294 13.3566 12.1003 13.2121 12.0421 13.219C11.9693 13.2328 12.0421 13.4048 11.9402 13.391C11.8456 13.3841 11.831 13.2121 11.7509 13.219C11.6781 13.2328 11.7655 13.391 11.6927 13.391C11.6199 13.391 11.6053 13.2328 11.5326 13.219C11.4598 13.2121 11.4889 13.3704 11.4452 13.3704C11.4015 13.3704 11.3579 13.219 11.3287 13.219C11.3069 13.219 11.3287 13.3704 11.2414 13.3566C11.154 13.3428 11.154 13.1915 11.1322 13.1984C11.1031 13.2121 11.1031 13.3222 11.0449 13.3222C10.9866 13.3222 10.9794 13.2121 10.9575 13.2259C10.9284 13.2328 10.841 13.3704 10.7828 13.3497C10.7173 13.3291 10.7974 13.219 10.7683 13.219C10.7391 13.219 10.6664 13.2947 10.6227 13.2878C10.579 13.2809 10.6227 13.1915 10.6081 13.1915C10.5936 13.1915 10.4844 13.2465 10.4334 13.2465C10.3825 13.2465 10.2442 13.3153 10.2078 13.2534C10.1714 13.1846 10.3024 13.1846 10.3315 13.1227C10.3534 13.0607 10.2587 12.875 10.3606 12.8131C10.4553 12.7442 10.7683 12.9025 11.2341 12.7924C12.0785 12.5791 12.7336 12.3314 12.7991 12.3383Z" fill="#FFEC2D"/>
    </g>
    <defs>
        <clipPath id="clip0_334_50">
            <rect width="20" height="15" fill="white"/>
        </clipPath>
    </defs>
</svg>
