<?xml version="1.0" encoding="utf-8"?>
<!-- Generator: Adobe Illustrator 18.1.1, SVG Export Plug-In . SVG Version: 6.00 Build 0)  -->
<svg version="1.1" id="Layer_1" xmlns="http://www.w3.org/2000/svg" xmlns:xlink="http://www.w3.org/1999/xlink" x="0px" y="0px"
	 viewBox="0 0 162 27" enable-background="new 0 0 162 27" xml:space="preserve">
<g>
	<path fill="#716EF6" d="M29.1,12h5.2v3.5h-5.2v7.1h6.6V26H25.3V1.8h10.4v3.5h-6.6V12z"/>
	<path fill="#716EF6" d="M38,1.8h3.8v20.8h6.3V26H38V1.8z"/>
	<path fill="#716EF6" d="M53.6,12h5.2v3.5h-5.2v7.1h6.6V26H49.8V1.8h10.4v3.5h-6.6V12z"/>
	<path fill="#716EF6" d="M73.6,17v3.2c0,3.9-1.9,6.1-5.7,6.1s-5.7-2.2-5.7-6.1V7.6c0-3.9,1.9-6.1,5.7-6.1s5.7,2.2,5.7,6.1v2.4H70
		V7.3c0-1.7-0.8-2.4-2-2.4s-2,0.7-2,2.4v13.1c0,1.7,0.8,2.4,2,2.4s2-0.6,2-2.4V17H73.6z"/>
	<path fill="#716EF6" d="M74.8,1.8h11.8v3.5h-4V26h-3.8V5.2h-4V1.8z"/>
	<path fill="#716EF6" d="M96.2,26c-0.2-0.6-0.3-1-0.3-3v-3.8c0-2.3-0.8-3.1-2.5-3.1h-1.3V26h-3.8V1.8H94c4,0,5.7,1.8,5.7,5.6v1.9
		c0,2.5-0.8,4.1-2.5,4.9c1.9,0.8,2.5,2.6,2.5,5.2v3.7c0,1.2,0,2,0.4,2.9H96.2z M92.1,5.2v7.5h1.5c1.4,0,2.3-0.6,2.3-2.6V7.7
		c0-1.7-0.6-2.5-1.9-2.5H92.1z"/>
	<path fill="#716EF6" d="M101.9,7.6c0-3.9,2-6.1,5.8-6.1s5.8,2.2,5.8,6.1v12.6c0,3.9-2,6.1-5.8,6.1s-5.8-2.2-5.8-6.1V7.6z
		 M105.7,20.5c0,1.7,0.8,2.4,2,2.4s2-0.7,2-2.4V7.3c0-1.7-0.8-2.4-2-2.4s-2,0.7-2,2.4V20.5z"/>
	<path fill="#716EF6" d="M119.3,8.5V26h-3.4V1.8h4.8l3.9,14.5V1.8h3.4V26h-3.9L119.3,8.5z"/>
	<path fill="#716EF6" d="M130.7,1.8h3.8V26h-3.8V1.8z"/>
	<path fill="#716EF6" d="M148.4,17v3.2c0,3.9-1.9,6.1-5.7,6.1c-3.7,0-5.7-2.2-5.7-6.1V7.6c0-3.9,1.9-6.1,5.7-6.1
		c3.7,0,5.7,2.2,5.7,6.1v2.4h-3.6V7.3c0-1.7-0.8-2.4-2-2.4s-2,0.7-2,2.4v13.1c0,1.7,0.8,2.4,2,2.4s2-0.6,2-2.4V17H148.4z"/>
	<path fill="#716EF6" d="M155.8,1.5c3.7,0,5.6,2.2,5.6,6.1v0.8h-3.6v-1c0-1.7-0.7-2.4-1.9-2.4c-1.2,0-1.9,0.7-1.9,2.4
		c0,5,7.5,5.9,7.5,12.9c0,3.9-1.9,6.1-5.7,6.1c-3.7,0-5.7-2.2-5.7-6.1v-1.5h3.6v1.7c0,1.7,0.8,2.4,2,2.4s2-0.6,2-2.4
		c0-5-7.5-5.9-7.5-12.9C150.2,3.7,152.1,1.5,155.8,1.5z"/>
</g>
<path fill="#AFF66E" d="M19.7,8.5V5.9H17V5c0-1.1-0.9-2-1.9-2h-1.3V0.2h-2.6v2.9H9.5V0.2H7v2.9H5.7c-1.1,0-1.9,0.9-1.9,2v0.9H1.1
	v2.6h2.7v3.7H1.1v2.6h2.7v3.7H1.1v2.6h2.7V22c0,1.1,0.9,2,1.9,2H7v2.9h2.6v-2.9h1.7v2.9h2.6v-2.9h1.3c1.1,0,1.9-0.9,1.9-2v-0.9h2.7
	v-2.6H17v-3.7h2.7v-2.6H17V8.5H19.7z M14.4,21.3H6.3V5.7h8.1V21.3z"/>
</svg>
