<?xml version="1.0" encoding="utf-8"?>
<!-- Generator: Adobe Illustrator 18.1.1, SVG Export Plug-In . SVG Version: 6.00 Build 0)  -->
<svg version="1.1" id="Layer_1" xmlns="http://www.w3.org/2000/svg" xmlns:xlink="http://www.w3.org/1999/xlink" x="0px" y="0px"
	 viewBox="0 0 177 27" enable-background="new 0 0 177 27" xml:space="preserve">
<g>
	<path fill="#716EF6" d="M28.3,17.3v3.1c0,1.7,0.8,2.4,2,2.4s2-0.6,2-2.4v-5.2h-3.5v-3.5h3.5V7.3c0-1.7-0.8-2.4-2-2.4s-2,0.7-2,2.4
		v2.3h-3.5v-2c0-3.9,1.9-6.1,5.6-6.1s5.7,2.2,5.7,6.1v12.6c0,3.9-1.9,6.1-5.7,6.1s-5.7-2.2-5.7-6.1v-2.9H28.3z"/>
	<path fill="#716EF6" d="M37.5,22.6c1.7,0,2.3-0.2,2.4-2.5l0.6-18.3h10.8V26h-3.9V5.2H44l-0.4,14.7c-0.1,4.4-1.7,6.2-5.5,6.2h-0.6
		V22.6z"/>
	<path fill="#716EF6" d="M58,12h5.2v3.5H58v7.1h6.6V26H54.2V1.8h10.4v3.5H58V12z"/>
	<path fill="#716EF6" d="M71.9,16.4l-1.2,2.2V26h-3.8V1.8h3.8v10.6l5-10.6h3.8l-5.3,10.8L79.5,26h-3.9L71.9,16.4z"/>
	<path fill="#716EF6" d="M80.2,1.8H92v3.5h-4V26h-3.8V5.2h-4V1.8z"/>
	<path fill="#716EF6" d="M104.9,7.8v3.2c0,3.9-1.9,6-5.7,6h-1.8V26h-3.8V1.8h5.6C103.1,1.8,104.9,3.9,104.9,7.8z M97.4,5.2v8.2h1.8
		c1.2,0,1.9-0.6,1.9-2.3V7.5c0-1.7-0.7-2.3-1.9-2.3H97.4z"/>
	<path fill="#716EF6" d="M106.4,7.6c0-3.9,2-6.1,5.8-6.1s5.8,2.2,5.8,6.1v12.6c0,3.9-2,6.1-5.8,6.1s-5.8-2.2-5.8-6.1V7.6z
		 M110.2,20.5c0,1.7,0.8,2.4,2,2.4s2-0.7,2-2.4V7.3c0-1.7-0.8-2.4-2-2.4s-2,0.7-2,2.4V20.5z"/>
	<path fill="#716EF6" d="M124.2,26h-3.8V1.8h3.8v10.4h4.3V1.8h3.9V26h-3.9V15.6h-4.3V26z"/>
	<path fill="#716EF6" d="M139.2,26h-3.9V1.8h3.4v15.4l1.4-5.3l3.1-10h4.2V26h-3.4V8.9l-1.6,6L139.2,26z"/>
	<path fill="#716EF6" d="M155,16.4l-1.2,2.2V26H150V1.8h3.8v10.6l5-10.6h3.8l-5.3,10.8l5.3,13.5h-3.9L155,16.4z"/>
	<path fill="#716EF6" d="M176.7,26h-3.8l-0.7-4.4h-4.7l-0.7,4.4h-3.5l3.9-24.3h5.6L176.7,26z M168,18.3h3.7l-1.8-12.3L168,18.3z"/>
</g>
<path fill="#AFF66E" d="M19.6,8.5V5.9h-2.7V5c0-1.1-0.9-2-1.9-2h-1.3V0.2h-2.6v2.9H9.5V0.2H6.9v2.9H5.6c-1.1,0-1.9,0.9-1.9,2v0.9H1
	v2.6h2.7v3.7H1v2.6h2.7v3.7H1v2.6h2.7V22c0,1.1,0.9,2,1.9,2h1.3v2.9h2.6v-2.9h1.7v2.9h2.6v-2.9H15c1.1,0,1.9-0.9,1.9-2v-0.9h2.7
	v-2.6h-2.7v-3.7h2.7v-2.6h-2.7V8.5H19.6z M14.3,21.3H6.3V5.7h8.1V21.3z"/>
</svg>
